<?xml version="1.0" standalone="no"?>
<!DOCTYPE svg PUBLIC "-//W3C//DTD SVG 20010904//EN"
 "http://www.w3.org/TR/2001/REC-SVG-20010904/DTD/svg10.dtd">
<svg version="1.0" xmlns="http://www.w3.org/2000/svg"
 width="825.000000pt" height="825.000000pt" viewBox="0 0 825.000000 825.000000"
 preserveAspectRatio="xMidYMid meet">
<metadata>
Created by potrace 1.11, written by Peter Selinger 2001-2013
</metadata>
<g transform="translate(0.000000,825.000000) scale(0.100000,-0.100000)"
fill="#000000" stroke="none">
<path d="M4020 7538 c0 -3 -8 -5 -17 -3 -10 1 -23 -2 -30 -7 -7 -6 -14 -5 -18
2 -5 8 -11 7 -22 -2 -9 -7 -18 -12 -20 -10 -8 6 -44 1 -40 -5 3 -5 -5 -9 -16
-9 -48 -4 -67 -9 -67 -18 0 -5 -3 -7 -6 -3 -4 3 -13 -1 -21 -9 -9 -8 -21 -13
-29 -10 -7 3 -18 -2 -24 -10 -7 -8 -18 -14 -26 -14 -7 0 -18 -8 -23 -17 -6
-10 -11 -14 -11 -10 0 5 -13 -1 -30 -13 -16 -12 -34 -18 -40 -15 -6 3 -13 0
-16 -8 -3 -8 -25 -25 -50 -37 -24 -13 -44 -27 -44 -32 0 -5 -4 -7 -9 -4 -5 3
-14 -1 -21 -9 -7 -8 -21 -15 -32 -15 -10 0 -21 -7 -24 -15 -4 -8 -10 -12 -15
-9 -5 3 -9 0 -9 -6 0 -6 -4 -8 -10 -5 -5 3 -10 1 -10 -4 0 -6 -6 -10 -12 -9
-7 2 -12 -3 -10 -10 1 -8 -2 -11 -8 -7 -13 8 -52 -19 -42 -30 4 -5 1 -5 -6 -1
-6 4 -19 0 -28 -8 -9 -9 -20 -14 -25 -10 -5 3 -12 -2 -15 -10 -3 -9 -10 -13
-15 -10 -5 3 -9 0 -9 -6 0 -6 -5 -8 -10 -5 -6 3 -13 -1 -16 -9 -3 -9 -10 -13
-15 -10 -5 3 -23 -6 -40 -20 -17 -15 -34 -24 -39 -21 -4 3 -11 -2 -14 -11 -3
-8 -10 -12 -16 -9 -5 3 -10 1 -10 -5 0 -6 -4 -8 -10 -5 -5 3 -10 3 -10 -2 0
-4 -12 -17 -27 -27 -15 -11 -23 -14 -18 -5 5 7 -4 4 -19 -9 -16 -12 -35 -22
-42 -22 -8 0 -14 -4 -14 -10 0 -5 -7 -10 -15 -10 -7 0 -18 -7 -23 -16 -5 -9
-12 -15 -15 -15 -24 3 -37 0 -32 -9 6 -9 -8 -14 -27 -11 -5 0 -8 -4 -8 -9 0
-6 -6 -10 -14 -10 -7 0 -19 -7 -26 -15 -7 -8 -17 -12 -23 -8 -6 4 -8 0 -4 -9
4 -12 1 -14 -14 -11 -10 3 -19 0 -19 -6 0 -6 -5 -11 -11 -11 -7 0 -18 -8 -26
-17 -8 -10 -12 -13 -8 -6 3 7 -12 3 -35 -9 -22 -12 -40 -25 -40 -30 0 -4 -5
-8 -12 -8 -6 0 -20 -8 -31 -17 -15 -13 -19 -14 -13 -3 4 8 -1 6 -11 -5 -10
-11 -25 -20 -33 -20 -8 0 -14 -5 -13 -12 2 -7 -4 -10 -12 -7 -8 4 -15 1 -15
-6 0 -6 -4 -8 -10 -5 -5 3 -10 2 -10 -4 0 -5 -10 -13 -22 -17 -13 -4 -25 -10
-28 -13 -3 -4 -21 -15 -40 -24 -48 -24 -74 -40 -82 -52 -4 -5 -10 -6 -14 -3
-8 8 -34 -14 -27 -24 2 -4 -3 -5 -11 -2 -9 3 -16 1 -16 -6 0 -6 -4 -8 -10 -5
-5 3 -10 1 -10 -4 0 -6 -8 -11 -18 -11 -9 0 -23 -9 -30 -20 -7 -12 -17 -18
-22 -15 -6 3 -10 2 -10 -4 0 -6 -7 -8 -15 -5 -8 4 -15 2 -15 -4 0 -5 -16 -17
-35 -26 -19 -9 -35 -20 -35 -24 0 -4 -9 -8 -20 -9 -11 -1 -27 -9 -36 -17 -9
-9 -21 -13 -27 -9 -8 4 -8 2 1 -9 10 -13 9 -15 -13 -13 -14 2 -23 -1 -19 -6 5
-8 -9 -13 -28 -10 -5 0 -8 -4 -8 -10 0 -5 -4 -7 -10 -4 -5 3 -10 1 -10 -5 0
-6 -4 -9 -9 -6 -5 3 -12 -1 -15 -10 -3 -8 -10 -12 -16 -9 -5 3 -10 1 -10 -5 0
-6 -4 -9 -9 -6 -5 3 -12 -1 -15 -10 -3 -8 -10 -13 -16 -9 -5 3 -15 -3 -21 -14
-7 -10 -19 -17 -26 -14 -7 3 -13 0 -13 -7 0 -6 -5 -8 -10 -5 -6 3 -13 -1 -16
-9 -3 -9 -10 -13 -15 -10 -5 3 -9 0 -9 -5 0 -6 -5 -11 -12 -11 -6 0 -20 -8
-31 -17 -11 -10 -17 -12 -13 -6 4 8 -5 6 -23 -4 -16 -10 -27 -21 -25 -25 5 -7
-10 -12 -28 -9 -5 0 -8 -6 -8 -15 0 -8 -4 -13 -9 -9 -6 3 -39 -24 -74 -59 -36
-36 -68 -62 -72 -58 -5 4 -5 1 -1 -6 4 -7 1 -15 -8 -18 -9 -3 -13 -10 -10 -15
3 -5 -2 -12 -10 -15 -9 -3 -16 -12 -16 -19 0 -7 -7 -15 -15 -19 -8 -3 -15 -15
-15 -26 0 -11 -7 -23 -15 -26 -8 -4 -13 -10 -10 -14 3 -5 -3 -13 -12 -19 -10
-6 -14 -11 -10 -11 5 0 -2 -14 -14 -32 -13 -17 -18 -28 -11 -24 7 4 3 -9 -9
-28 -11 -19 -18 -40 -14 -46 3 -5 1 -10 -4 -10 -6 0 -11 -7 -11 -16 0 -8 -4
-13 -8 -10 -8 4 -10 -10 -12 -66 -1 -16 -5 -28 -10 -28 -4 0 -7 -11 -5 -25 1
-14 -2 -25 -6 -25 -11 0 -7 -23 6 -32 7 -5 6 -8 0 -8 -15 0 -17 -50 -2 -51 6
0 3 -4 -8 -9 -11 -5 -15 -9 -10 -9 6 -1 9 -57 8 -153 -1 -106 2 -157 10 -167
9 -11 9 -13 0 -8 -8 5 -11 -11 -11 -63 0 -39 5 -73 10 -76 5 -3 1 -15 -9 -27
-17 -20 -17 -20 2 -13 16 6 18 5 8 -5 -7 -7 -13 -23 -13 -36 0 -13 6 -23 13
-23 7 0 4 -7 -7 -15 -11 -8 -15 -15 -10 -15 13 0 12 -43 -1 -52 -6 -5 -6 -8 2
-8 6 0 9 -8 6 -19 -3 -10 0 -22 7 -26 8 -5 8 -10 -1 -21 -7 -8 -10 -32 -7 -59
4 -28 1 -46 -6 -49 -7 -3 -7 -5 1 -5 7 -1 10 -8 7 -16 -4 -8 -1 -22 6 -30 11
-13 10 -14 -5 -9 -14 6 -16 4 -10 -6 5 -8 7 -36 6 -63 -2 -39 0 -47 11 -41 10
6 11 5 1 -7 -14 -18 -15 -158 -1 -176 5 -7 5 -14 -2 -18 -14 -9 -13 -78 3 -94
9 -11 9 -13 0 -7 -9 5 -13 -3 -13 -28 0 -22 5 -36 13 -36 7 0 4 -7 -7 -15 -11
-8 -15 -15 -10 -15 13 0 12 -43 -1 -52 -6 -5 -5 -8 2 -8 7 0 10 -7 7 -15 -4
-8 -1 -22 5 -29 8 -10 9 -16 1 -21 -5 -3 -9 -33 -9 -65 1 -41 5 -57 13 -53 7
4 6 1 -1 -8 -14 -18 -15 -158 -1 -176 5 -7 5 -14 -2 -18 -14 -9 -13 -78 2 -94
10 -11 10 -13 1 -7 -9 5 -13 -3 -13 -28 0 -22 5 -36 13 -36 7 0 4 -7 -7 -15
-11 -8 -15 -15 -10 -15 13 0 12 -43 -1 -52 -6 -5 -5 -8 2 -8 7 0 10 -7 7 -15
-4 -8 -1 -22 5 -29 8 -9 8 -16 2 -20 -13 -8 -11 -215 1 -222 5 -3 1 -15 -9
-27 -17 -20 -17 -20 2 -13 16 6 18 5 8 -5 -17 -17 -17 -59 0 -59 7 0 4 -7 -7
-15 -11 -8 -16 -15 -10 -15 5 0 9 -11 9 -25 0 -14 -4 -25 -9 -25 -6 0 -5 -5 1
-11 6 -6 9 -18 6 -27 -5 -11 -3 -13 8 -7 12 8 12 6 0 -8 -7 -9 -9 -17 -4 -17
5 0 10 -10 10 -22 5 -78 13 -115 31 -135 11 -12 18 -24 15 -27 -6 -5 39 -110
49 -114 5 -2 6 -8 2 -13 -3 -5 2 -12 10 -15 9 -3 13 -10 10 -15 -3 -5 1 -12
10 -15 8 -3 12 -12 9 -20 -3 -9 2 -14 13 -15 11 0 14 -3 7 -6 -9 -3 -6 -12 10
-28 12 -13 36 -41 54 -62 18 -21 41 -49 53 -62 11 -13 20 -21 20 -18 0 4 13
-7 30 -25 16 -17 30 -27 30 -23 0 4 8 -2 19 -13 10 -12 21 -19 25 -15 3 3 6 1
6 -6 0 -8 6 -11 16 -7 8 3 13 2 10 -3 -3 -4 7 -14 22 -22 15 -8 30 -18 34 -24
4 -5 8 -6 8 -2 0 5 7 1 16 -7 8 -9 20 -14 25 -10 5 3 12 -2 15 -10 3 -9 10
-14 14 -11 5 3 13 -3 19 -12 6 -10 11 -14 11 -9 0 5 7 3 15 -4 8 -6 20 -8 26
-4 7 4 9 3 6 -3 -4 -6 9 -18 28 -27 19 -9 35 -22 35 -28 0 -5 7 -8 15 -4 8 3
15 1 15 -4 0 -6 9 -10 21 -10 11 0 17 -4 14 -10 -3 -5 1 -10 9 -10 9 0 16 -5
16 -11 0 -5 4 -8 9 -4 5 3 16 -2 24 -10 9 -8 26 -19 39 -25 28 -12 57 -30 76
-48 7 -7 18 -10 23 -7 5 4 9 2 9 -2 0 -5 12 -14 28 -21 56 -27 111 -60 106
-65 -9 -9 35 -19 47 -11 7 4 9 3 6 -3 -3 -5 7 -17 24 -27 16 -9 29 -14 29 -11
0 3 6 0 14 -7 8 -7 11 -17 8 -23 -3 -5 3 -3 13 5 11 9 16 10 11 3 -4 -8 -1
-13 8 -13 9 0 16 -5 16 -11 0 -5 4 -7 10 -4 6 3 10 2 10 -3 0 -8 64 -42 76
-41 4 0 10 -5 15 -12 4 -7 14 -14 23 -15 9 -1 23 -9 32 -18 8 -9 20 -14 25
-11 5 4 9 2 9 -3 0 -5 12 -14 26 -20 14 -7 23 -16 20 -21 -4 -5 5 -8 18 -7 15
2 27 -3 31 -12 3 -8 8 -12 11 -9 4 3 15 -3 27 -14 11 -10 27 -19 34 -19 7 0
13 -5 13 -11 0 -5 5 -7 10 -4 6 3 10 1 10 -5 0 -6 5 -8 10 -5 6 3 10 1 10 -5
0 -6 5 -8 10 -5 6 3 10 1 10 -4 0 -6 18 -18 40 -27 22 -9 40 -20 40 -24 0 -5
16 -14 36 -20 19 -7 38 -18 41 -26 3 -8 8 -12 13 -9 4 2 22 -7 40 -20 18 -13
37 -22 41 -19 5 3 9 0 9 -5 0 -6 7 -11 15 -11 9 0 18 -7 21 -15 4 -8 9 -13 14
-10 4 2 17 -5 28 -16 12 -10 24 -19 27 -19 12 0 95 -45 95 -52 0 -4 9 -8 21
-8 11 0 17 -4 14 -10 -3 -5 3 -10 15 -10 12 0 19 -4 16 -8 -2 -4 4 -9 16 -9
11 -1 27 -10 36 -21 10 -10 23 -17 29 -15 7 3 16 -2 19 -11 3 -9 10 -13 15
-10 5 3 12 -2 15 -10 3 -9 10 -13 16 -10 5 3 18 -3 29 -15 11 -12 24 -19 28
-17 4 3 20 -6 35 -19 16 -14 33 -22 37 -19 5 3 9 0 9 -5 0 -6 9 -11 20 -11 11
0 20 -4 20 -10 0 -5 5 -10 10 -10 6 0 20 -9 32 -20 12 -11 30 -20 39 -20 10 0
23 -8 28 -17 8 -14 11 -15 11 -3 1 10 4 9 10 -5 5 -11 9 -14 9 -7 1 10 5 9 17
-3 9 -9 23 -14 30 -11 8 3 14 1 14 -4 0 -6 11 -10 24 -10 14 0 28 -5 31 -11 4
-6 13 -8 20 -5 7 2 18 -1 24 -7 8 -8 11 -8 11 2 0 9 4 10 13 4 18 -13 60 -17
182 -15 149 1 175 4 175 16 0 6 5 4 10 -4 6 -9 10 -10 10 -3 0 6 9 10 20 8 11
-2 20 0 20 5 0 5 9 7 20 5 11 -2 20 1 20 7 0 5 6 8 14 5 7 -3 18 -1 22 3 5 5
20 11 33 13 12 2 27 10 32 18 5 8 9 10 9 5 0 -5 7 -3 15 4 8 7 15 9 15 4 0 -5
5 -1 11 9 6 9 14 15 20 12 5 -4 9 -1 9 4 0 6 6 10 13 9 6 -2 11 2 10 9 -2 7 4
10 12 7 8 -4 17 1 21 9 3 9 15 14 29 12 13 -1 23 2 22 7 -1 4 16 18 38 31 22
12 42 25 43 30 2 4 10 7 18 7 8 0 14 5 14 11 0 5 5 7 10 4 6 -3 10 -2 10 4 0
6 6 8 14 5 7 -3 16 2 19 10 4 9 13 16 22 16 8 0 15 5 15 10 0 6 7 10 15 10 8
0 15 5 15 11 0 5 4 8 9 4 5 -3 16 1 24 9 8 8 17 12 21 9 3 -4 6 -1 6 6 0 7 5
9 10 6 6 -3 10 -2 10 3 0 9 52 37 58 30 2 -1 8 5 13 15 6 9 14 15 18 12 5 -2
14 2 21 10 7 8 17 15 23 15 6 0 22 10 35 23 14 12 22 15 18 7 -5 -9 -2 -8 7 2
8 10 17 15 20 11 4 -3 7 -1 7 6 0 7 5 9 10 6 6 -3 10 -1 10 4 0 6 4 10 9 8 5
-1 17 7 26 18 9 11 13 13 9 5 -6 -11 -2 -10 13 3 11 9 23 14 26 10 4 -3 7 -1
7 5 0 6 9 14 20 17 11 4 17 11 14 17 -5 7 -2 8 5 3 8 -4 25 1 42 14 15 11 32
21 37 21 5 0 17 9 27 20 10 12 25 18 32 16 7 -3 13 -1 13 5 0 6 5 7 10 4 6 -3
13 1 16 9 3 9 12 16 19 16 7 0 18 7 25 15 7 9 15 13 18 11 2 -3 11 2 19 10 8
8 18 12 23 9 4 -3 10 2 14 10 3 8 13 15 22 15 9 0 25 10 35 22 13 14 19 17 19
7 1 -10 4 -9 11 4 6 9 14 15 20 12 5 -4 13 4 17 16 6 15 11 18 16 11 5 -8 13
-6 28 8 12 11 28 20 35 20 7 0 13 5 13 11 0 5 4 8 9 5 5 -3 12 1 15 10 3 8 10
12 16 9 6 -3 13 0 16 9 3 9 12 12 21 9 11 -4 14 -2 9 5 -5 8 0 12 13 12 12 0
21 5 21 11 0 5 5 7 10 4 6 -3 10 -1 10 4 0 6 7 11 15 11 9 0 18 7 22 16 3 9
13 14 24 11 11 -3 17 -2 15 2 -3 4 4 13 16 20 16 10 19 10 13 -1 -3 -7 1 -4
10 7 9 11 21 19 26 18 5 -2 9 2 9 8 0 5 5 7 10 4 6 -3 10 -1 10 5 0 6 5 8 10
5 6 -3 10 -2 10 3 0 6 11 13 25 16 14 4 25 11 25 16 0 6 7 10 15 10 8 0 15 5
15 11 0 6 6 9 12 7 7 -3 21 5 31 16 10 12 16 15 12 9 -10 -21 9 -14 23 7 7 12
16 18 21 15 5 -2 14 2 22 11 11 13 81 50 101 53 4 1 20 13 35 27 20 18 28 21
35 12 5 -9 8 -6 8 9 0 16 4 21 15 17 8 -4 15 -1 15 7 0 7 3 9 6 6 4 -4 19 2
34 13 16 11 33 20 39 20 6 0 11 5 11 12 0 6 3 9 6 5 4 -3 12 -1 20 6 33 29 44
37 44 31 0 -3 6 -1 13 5 8 6 18 7 22 3 5 -4 5 -2 2 4 -6 11 19 29 36 26 4 -1
7 6 7 16 0 14 2 15 10 2 8 -12 10 -10 10 8 0 13 4 20 10 17 6 -3 13 1 16 9 3
9 13 16 21 16 8 0 12 4 9 9 -3 5 1 12 10 15 9 4 15 9 12 12 -3 2 10 21 29 42
55 59 63 71 63 88 0 8 4 13 8 10 5 -3 14 11 21 30 7 19 17 32 22 29 5 -3 6 0
3 8 -3 8 3 17 13 21 13 5 14 9 4 15 -10 6 -9 11 3 24 9 8 16 23 16 32 0 10 5
13 12 9 7 -4 8 -3 4 5 -4 6 -2 18 4 26 7 8 9 15 5 15 -4 0 -2 6 4 14 6 8 13
28 14 45 1 17 6 31 10 31 5 0 6 4 2 9 -3 5 -1 13 5 16 8 5 7 11 -1 21 -8 10
-8 14 0 14 6 0 9 13 7 30 -2 17 -1 30 3 30 3 0 6 77 6 170 0 101 -4 170 -9
170 -6 0 -5 5 2 12 16 16 15 31 0 22 -9 -5 -9 -2 1 9 11 14 11 17 0 17 -10 0
-10 3 -1 12 16 16 15 31 0 22 -10 -5 -10 -4 -1 6 10 11 9 16 -5 27 -11 9 -12
12 -3 11 7 -2 16 3 19 11 3 10 0 11 -9 5 -12 -7 -12 -5 0 9 11 14 11 17 0 17
-10 0 -10 3 -1 12 16 16 15 31 0 22 -9 -5 -9 -2 1 9 11 14 11 17 0 17 -10 0
-10 3 -1 12 16 16 15 31 0 22 -9 -5 -9 -2 1 9 11 14 11 17 0 17 -11 0 -11 2 1
10 13 8 13 10 1 10 -12 0 -12 3 -3 12 16 16 15 31 0 22 -9 -5 -9 -2 1 9 11 14
11 17 0 17 -10 0 -10 3 -1 12 16 16 15 31 0 22 -10 -5 -10 -4 -1 6 10 11 9 16
-5 27 -11 9 -12 12 -3 11 7 -2 16 3 19 11 3 10 0 11 -9 5 -12 -7 -12 -5 0 9
11 14 11 17 0 17 -10 0 -10 3 -1 12 16 16 15 31 0 22 -9 -5 -9 -2 1 9 11 14
11 17 0 17 -10 0 -10 3 -1 12 16 16 15 31 0 22 -9 -5 -9 -2 1 9 11 14 11 17 0
17 -10 0 -10 3 -1 12 16 16 15 31 0 22 -8 -5 -7 0 2 11 14 17 13 18 -4 11 -19
-6 -19 -6 -3 12 20 22 22 36 5 26 -9 -5 -9 -2 1 9 10 13 10 17 1 17 -9 0 -10
3 -1 13 7 10 7 17 0 24 -8 8 -8 13 0 17 6 4 11 12 11 17 0 6 -6 7 -12 3 -9 -5
-9 -2 1 9 9 12 10 17 2 17 -7 0 -9 5 -5 11 10 18 10 269 0 269 -6 0 -5 5 2 12
16 16 15 31 0 22 -9 -5 -9 -2 1 9 11 14 11 17 0 17 -10 0 -10 3 -1 12 19 19
14 32 -5 17 -15 -11 -14 -10 1 9 12 13 14 22 7 22 -7 0 -9 5 -5 11 11 18 10
368 -1 361 -5 -3 -3 3 5 13 14 17 13 18 -4 11 -19 -6 -19 -6 -3 12 20 22 22
36 5 26 -9 -5 -9 -2 1 9 10 13 10 17 1 17 -9 0 -10 3 -1 13 7 10 7 17 0 24 -8
8 -8 13 0 17 6 4 11 12 11 17 0 6 -6 7 -12 3 -9 -5 -9 -2 1 9 9 12 10 17 2 17
-7 0 -9 5 -5 12 11 17 10 108 0 108 -6 0 -5 5 2 12 16 16 15 31 0 22 -9 -5 -9
-2 1 9 11 14 11 17 0 17 -10 0 -10 3 -1 12 16 16 15 31 0 22 -10 -5 -10 -4 -1
6 10 11 9 16 -5 27 -11 9 -12 12 -3 11 7 -2 16 3 19 11 3 10 0 11 -9 5 -12 -7
-12 -5 0 9 11 14 11 17 0 17 -10 0 -10 3 -1 12 16 16 15 31 0 22 -9 -5 -9 -2
1 9 11 14 11 17 0 17 -10 0 -10 3 -1 12 16 16 15 31 0 22 -9 -5 -9 -2 1 9 11
14 11 17 0 17 -11 0 -11 2 1 10 12 8 12 10 1 10 -10 0 -11 3 -2 13 8 10 7 17
-2 27 -9 10 -9 11 1 6 9 -6 11 -1 7 21 -3 15 -7 33 -9 40 -1 7 -5 16 -9 19 -4
4 -2 13 4 21 7 8 8 13 1 13 -5 0 -12 15 -15 33 -14 76 -20 96 -28 92 -4 -3 -6
4 -4 15 2 11 -1 20 -6 20 -6 0 -7 5 -4 10 3 6 1 10 -5 10 -6 0 -9 4 -5 9 3 6
-3 14 -12 20 -10 6 -12 11 -5 11 6 0 12 5 12 11 0 5 -4 7 -10 4 -5 -3 -10 0
-10 8 0 7 -8 22 -17 33 -10 11 -19 26 -21 34 -2 8 -8 17 -13 18 -5 2 -9 10 -9
18 0 8 -5 14 -12 14 -6 0 -9 3 -5 6 6 7 5 9 -48 68 -19 22 -35 43 -35 47 0 4
-9 11 -21 14 -11 4 -18 9 -15 12 7 7 -14 27 -37 36 -11 4 -15 12 -11 18 4 8 3
9 -4 5 -7 -4 -12 -2 -12 3 0 6 -7 11 -15 11 -8 0 -15 5 -15 10 0 6 -6 10 -14
10 -7 0 -19 7 -26 15 -7 8 -16 12 -21 9 -5 -3 -9 -2 -9 3 0 7 -27 26 -87 59
-13 7 -23 10 -23 6 0 -3 -7 3 -15 14 -8 11 -14 14 -15 6 0 -7 -13 1 -30 18
-16 17 -30 25 -30 18 0 -8 -5 -6 -11 5 -5 9 -16 17 -24 17 -7 0 -21 7 -29 16
-9 8 -25 16 -35 17 -11 0 -17 5 -15 9 3 4 -2 8 -10 8 -9 0 -16 5 -16 12 0 6
-3 8 -7 5 -4 -4 -20 5 -36 20 -17 16 -27 22 -23 15 7 -11 4 -11 -13 0 -12 7
-21 16 -21 21 0 4 -4 5 -10 2 -5 -3 -10 -1 -10 6 0 7 -3 9 -7 6 -3 -4 -15 0
-25 10 -10 9 -18 13 -18 8 0 -4 -9 3 -21 16 -11 13 -17 18 -14 11 6 -11 3 -11
-14 0 -12 7 -21 16 -21 20 0 5 -9 8 -20 8 -11 0 -20 5 -20 10 0 6 -7 10 -16
10 -8 0 -12 5 -9 10 4 6 3 9 -2 8 -13 -3 -53 13 -53 22 0 5 -9 7 -20 5 -11 -2
-19 -1 -17 3 1 4 -2 8 -7 9 -5 1 -12 5 -15 10 -12 16 -74 56 -66 42 5 -8 -3
-4 -17 9 -14 13 -35 24 -46 25 -12 0 -19 3 -17 5 6 6 -61 50 -82 54 -10 2 -23
10 -30 18 -7 8 -13 11 -13 7 0 -4 -10 1 -22 13 -12 11 -28 20 -35 20 -8 0 -12
4 -9 8 2 4 -4 9 -15 9 -10 1 -26 9 -35 17 -9 9 -20 14 -25 11 -5 -4 -9 1 -9 9
0 10 -6 13 -17 9 -11 -4 -14 -3 -9 5 4 7 1 12 -7 12 -22 0 -76 30 -87 48 -5 9
-10 13 -10 9 0 -5 -15 1 -33 12 -19 11 -37 19 -40 16 -4 -3 -5 -2 -2 2 7 8
-36 38 -55 38 -8 -1 -22 7 -31 17 -9 10 -19 15 -23 11 -3 -3 -6 -1 -6 6 0 7
-4 9 -10 6 -5 -3 -10 -1 -10 6 0 7 -3 10 -6 6 -4 -3 -12 -1 -20 6 -39 35 -42
37 -47 24 -3 -7 -6 -4 -6 6 -1 10 -5 16 -9 13 -5 -3 -18 4 -30 14 -12 11 -28
20 -36 20 -8 0 -16 5 -18 10 -2 6 -13 12 -25 13 -12 0 -19 5 -17 9 3 4 -2 8
-10 8 -9 0 -16 5 -16 10 0 6 -6 10 -12 10 -7 0 -24 9 -38 20 -14 11 -36 20
-49 20 -13 0 -21 3 -18 7 9 9 -24 32 -46 33 -11 0 -15 4 -11 12 5 8 2 9 -9 5
-12 -4 -17 -1 -17 10 0 9 -3 13 -7 10 -3 -4 -15 1 -26 10 -15 13 -19 14 -13 3
5 -9 2 -8 -7 2 -8 10 -17 15 -20 11 -4 -3 -7 -1 -7 5 0 7 -6 12 -14 12 -8 0
-16 3 -18 8 -4 9 -50 36 -100 58 -21 9 -38 21 -38 27 0 6 -3 7 -7 4 -3 -4 -12
1 -20 11 -8 9 -12 11 -8 5 3 -7 2 -13 -4 -13 -5 0 -11 5 -13 10 -2 6 -17 12
-33 14 -17 2 -29 9 -27 15 1 6 -1 10 -5 9 -5 -1 -28 2 -53 7 -25 5 -47 9 -50
10 -3 0 -11 4 -17 8 -8 5 -13 3 -13 -5 0 -9 -3 -9 -10 2 -9 13 -11 13 -20 0
-7 -11 -10 -12 -10 -2 0 8 -10 13 -22 12 -13 -1 -25 -1 -28 0 -21 7 -70 6 -70
-2 0 -5 -5 -6 -11 -2 -15 9 -99 11 -99 2z"/>
</g>
</svg>
